<svg width="24" height="24" viewBox="0 0 24 24" fill="none" xmlns="http://www.w3.org/2000/svg">
<path d="M6.23445 20.625C5.94665 20.6245 5.66394 20.549 5.41414 20.4061C4.85164 20.0874 4.50195 19.4686 4.50195 18.7969V5.20313C4.50195 4.52954 4.85164 3.91266 5.41414 3.59391C5.66989 3.44693 5.96043 3.37134 6.25539 3.37505C6.55034 3.37876 6.83889 3.46164 7.09086 3.61501L18.7088 10.5694C18.951 10.7212 19.1506 10.932 19.2889 11.1821C19.4273 11.4322 19.4999 11.7133 19.4999 11.9991C19.4999 12.2849 19.4273 12.566 19.2889 12.816C19.1506 13.0661 18.951 13.2769 18.7088 13.4288L7.08898 20.385C6.83112 20.5409 6.53577 20.6239 6.23445 20.625Z" fill="#2563EB"/>
</svg>
